<svg width="100" height="100" viewBox="0 0 480 480" xmlns="http://www.w3.org/2000/svg">
  <defs>
    <linearGradient id="waveGradient" x1="0%" y1="0%" x2="0%" y2="100%">
      <stop offset="0%" style="stop-color:#6B5FBF;stop-opacity:1" />
      <stop offset="100%" style="stop-color:#9B6FD3;stop-opacity:1" />
    </linearGradient>
  </defs>
  <path d="M 80 80 Q 100 60 120 80 T 160 80 Q 180 60 200 80 T 240 80 L 240 300 Q 220 320 200 300 T 160 300 Q 140 320 120 300 T 80 300 Z" fill="url(#waveGradient)" opacity="0.3"/>
  <path d="M 150 100 Q 170 50 190 100 T 230 100 Q 250 50 270 100 T 310 100 Q 330 50 350 100 T 390 100 L 390 320 Q 370 340 350 320 T 310 320 Q 290 340 270 320 T 230 320 Q 210 340 190 320 T 150 320 Q 130 340 110 320 L 110 240 Q 130 260 150 240 T 190 240 Q 210 220 230 240 T 270 240 Q 290 220 310 240 T 350 240 Q 370 260 390 240 L 390 100 Q 370 70 350 100 T 310 100 Q 290 70 270 100 T 230 100 Q 210 70 190 100 T 150 100 Z" fill="url(#waveGradient)"/>
</svg>
